<?xml version="1.0" encoding="UTF-8"?>
<svg width="28px" height="24px" viewBox="0 0 28 24" version="1.1" xmlns="http://www.w3.org/2000/svg" xmlns:xlink="http://www.w3.org/1999/xlink">
    <!-- Generator: Sketch 43.1 (39012) - http://www.bohemiancoding.com/sketch -->
    <title>Group 7</title>
    <desc>Created with Sketch.</desc>
    <defs></defs>
    <g id="Page-1" stroke="none" stroke-width="1" fill="none" fill-rule="evenodd">
        <g id="Icons" transform="translate(-2.000000, -56.000000)" fill="#D5606C">
            <g id="Group-7" transform="translate(2.000000, 56.000000)">
                <path d="M20.3124268,16.0627197 L17.1873779,16.0627197 C16.7561212,16.0627197 16.4061157,16.4127252 16.4061157,16.8439819 L16.4061157,19.9690308 C16.4061157,20.4006781 16.7561212,20.750293 17.1873779,20.750293 L20.3124268,20.750293 C20.7440741,20.750293 21.093689,20.4006781 21.093689,19.9690308 L21.093689,16.8439819 C21.093689,16.4127252 20.7440741,16.0627197 20.3124268,16.0627197 L20.3124268,16.0627197 Z M7.81262207,16.0627197 L4.68757324,16.0627197 C4.25592587,16.0627197 3.90631104,16.4127252 3.90631104,16.8439819 L3.90631104,19.9690308 C3.90631104,20.4006781 4.25592587,20.750293 4.68757324,20.750293 L7.81262207,20.750293 C8.24387881,20.750293 8.59388428,20.4006781 8.59388428,19.9690308 L8.59388428,16.8439819 C8.59388428,16.4127252 8.24387881,16.0627197 7.81262207,16.0627197 L7.81262207,16.0627197 Z M14.0623291,16.0627197 L10.9372803,16.0627197 C10.5060235,16.0627197 10.1564087,16.4127252 10.1564087,16.8439819 L10.1564087,19.9690308 C10.1564087,20.4006781 10.5060235,20.750293 10.9372803,20.750293 L14.0623291,20.750293 C14.4939765,20.750293 14.8435913,20.4006781 14.8435913,19.9690308 L14.8435913,16.8439819 C14.8435913,16.4127252 14.4939765,16.0627197 14.0623291,16.0627197 L14.0623291,16.0627197 Z M19.5311645,19.1877686 L17.9686401,19.1877686 L17.9686401,17.6252441 L19.5311645,17.6252441 L19.5311645,19.1877686 L19.5311645,19.1877686 Z M7.03135986,19.1877686 L5.46883545,19.1877686 L5.46883545,17.6252441 L7.03135986,17.6252441 L7.03135986,19.1877686 L7.03135986,19.1877686 Z M13.2810669,19.1877686 L11.7185425,19.1877686 L11.7185425,17.6252441 L13.2810669,17.6252441 L13.2810669,19.1877686 L13.2810669,19.1877686 Z M14.0623291,9.81262207 L10.9372803,9.81262207 C10.5060235,9.81262207 10.1564087,10.1626275 10.1564087,10.5938843 L10.1564087,13.7189331 C10.1564087,14.1505805 10.5060235,14.5001953 10.9372803,14.5001953 L14.0623291,14.5001953 C14.4939765,14.5001953 14.8435913,14.1505805 14.8435913,13.7189331 L14.8435913,10.5938843 C14.8435913,10.1626275 14.4939765,9.81262207 14.0623291,9.81262207 L14.0623291,9.81262207 Z M7.81262207,9.81262207 L4.68757324,9.81262207 C4.25592587,9.81262207 3.90631104,10.1626275 3.90631104,10.5938843 L3.90631104,13.7189331 C3.90631104,14.1505805 4.25592587,14.5001953 4.68757324,14.5001953 L7.81262207,14.5001953 C8.24387881,14.5001953 8.59388428,14.1505805 8.59388428,13.7189331 L8.59388428,10.5938843 C8.59388428,10.1626275 8.24387881,9.81262207 7.81262207,9.81262207 L7.81262207,9.81262207 Z M20.3124268,9.81262207 L17.1873779,9.81262207 C16.7561212,9.81262207 16.4061157,10.1626275 16.4061157,10.5938843 L16.4061157,13.7189331 C16.4061157,14.1505805 16.7561212,14.5001953 17.1873779,14.5001953 L20.3124268,14.5001953 C20.7440741,14.5001953 21.093689,14.1505805 21.093689,13.7189331 L21.093689,10.5938843 C21.093689,10.1626275 20.7440741,9.81262207 20.3124268,9.81262207 L20.3124268,9.81262207 Z M13.2810669,12.9376709 L11.7185425,12.9376709 L11.7185425,11.3751465 L13.2810669,11.3751465 L13.2810669,12.9376709 L13.2810669,12.9376709 Z M7.03135986,12.9376709 L5.46883545,12.9376709 L5.46883545,11.3751465 L7.03135986,11.3751465 L7.03135986,12.9376709 L7.03135986,12.9376709 Z M19.5311645,12.9376709 L17.9686401,12.9376709 L17.9686401,11.3751465 L19.5311645,11.3751465 L19.5311645,12.9376709 L19.5311645,12.9376709 Z M23.4374756,22.3128174 L1.56252441,22.3128174 L1.56252441,5.12504883 L3.90631104,5.12504883 L3.90631104,5.90631104 C3.90631104,6.33795841 4.25592587,6.68757324 4.68757324,6.68757324 L7.03135986,6.68757324 C7.4626166,6.68757324 7.81262207,6.33795841 7.81262207,5.90631104 L7.81262207,5.12504883 L17.1873779,5.12504883 L17.1873779,5.90631104 C17.1873779,6.33795841 17.5373834,6.68757324 17.9686401,6.68757324 L20.3124268,6.68757324 C20.7440741,6.68757324 21.093689,6.33795841 21.093689,5.90631104 L21.093689,5.12504883 L23.4374756,5.12504883 L23.4374756,22.3128174 L23.4374756,22.3128174 Z M18.7499023,3.56252441 L19.5311645,3.56252441 L19.5311645,5.12504883 L18.7499023,5.12504883 L18.7499023,3.56252441 L18.7499023,3.56252441 Z M5.46883545,3.56252441 L6.25009766,3.56252441 L6.25009766,5.12504883 L5.46883545,5.12504883 L5.46883545,3.56252441 L5.46883545,3.56252441 Z M24.2187378,3.56252441 L21.093689,3.56252441 L21.093689,2.78126221 C21.093689,2.35000547 20.7440741,2 20.3124268,2 L17.9686401,2 C17.5373834,2 17.1873779,2.35000547 17.1873779,2.78126221 L17.1873779,3.56252441 L7.81262207,3.56252441 L7.81262207,2.78126221 C7.81262207,2.35000547 7.4626166,2 7.03135986,2 L4.68757324,2 C4.25592587,2 3.90631104,2.35000547 3.90631104,2.78126221 L3.90631104,3.56252441 L0.781262207,3.56252441 C0.349614838,3.56252441 0,3.91252988 0,4.34378662 L0,23.0940796 C0,23.525727 0.349614838,23.8753418 0.781262207,23.8753418 L24.2187378,23.8753418 C24.6499945,23.8753418 25,23.525727 25,23.0940796 L25,4.34378662 C25,3.91252988 24.6499945,3.56252441 24.2187378,3.56252441 L24.2187378,3.56252441 Z" id="66-copy"></path>
                <ellipse id="Oval" cx="23" cy="5" rx="5" ry="5"></ellipse>
            </g>
        </g>
    </g>
</svg>