<?xml version="1.0" encoding="UTF-8"?>
<svg width="25px" height="22px" viewBox="0 0 25 22" version="1.1" xmlns="http://www.w3.org/2000/svg" xmlns:xlink="http://www.w3.org/1999/xlink">
    <!-- Generator: Sketch 43.1 (39012) - http://www.bohemiancoding.com/sketch -->
    <title>66</title>
    <desc>Created with Sketch.</desc>
    <defs></defs>
    <g id="Page-1" stroke="none" stroke-width="1" fill="none" fill-rule="evenodd">
        <g id="Icons" transform="translate(-31.000000, -60.000000)" fill="#D5606C">
            <path d="M51.3124268,74.0627197 L48.1873779,74.0627197 C47.7561212,74.0627197 47.4061157,74.4127252 47.4061157,74.8439819 L47.4061157,77.9690308 C47.4061157,78.4006781 47.7561212,78.750293 48.1873779,78.750293 L51.3124268,78.750293 C51.7440741,78.750293 52.093689,78.4006781 52.093689,77.9690308 L52.093689,74.8439819 C52.093689,74.4127252 51.7440741,74.0627197 51.3124268,74.0627197 L51.3124268,74.0627197 Z M38.8126221,74.0627197 L35.6875732,74.0627197 C35.2559259,74.0627197 34.906311,74.4127252 34.906311,74.8439819 L34.906311,77.9690308 C34.906311,78.4006781 35.2559259,78.750293 35.6875732,78.750293 L38.8126221,78.750293 C39.2438788,78.750293 39.5938843,78.4006781 39.5938843,77.9690308 L39.5938843,74.8439819 C39.5938843,74.4127252 39.2438788,74.0627197 38.8126221,74.0627197 L38.8126221,74.0627197 Z M45.0623291,74.0627197 L41.9372803,74.0627197 C41.5060235,74.0627197 41.1564087,74.4127252 41.1564087,74.8439819 L41.1564087,77.9690308 C41.1564087,78.4006781 41.5060235,78.750293 41.9372803,78.750293 L45.0623291,78.750293 C45.4939765,78.750293 45.8435913,78.4006781 45.8435913,77.9690308 L45.8435913,74.8439819 C45.8435913,74.4127252 45.4939765,74.0627197 45.0623291,74.0627197 L45.0623291,74.0627197 Z M50.5311645,77.1877686 L48.9686401,77.1877686 L48.9686401,75.6252441 L50.5311645,75.6252441 L50.5311645,77.1877686 L50.5311645,77.1877686 Z M38.0313599,77.1877686 L36.4688355,77.1877686 L36.4688355,75.6252441 L38.0313599,75.6252441 L38.0313599,77.1877686 L38.0313599,77.1877686 Z M44.2810669,77.1877686 L42.7185425,77.1877686 L42.7185425,75.6252441 L44.2810669,75.6252441 L44.2810669,77.1877686 L44.2810669,77.1877686 Z M45.0623291,67.8126221 L41.9372803,67.8126221 C41.5060235,67.8126221 41.1564087,68.1626275 41.1564087,68.5938843 L41.1564087,71.7189331 C41.1564087,72.1505805 41.5060235,72.5001953 41.9372803,72.5001953 L45.0623291,72.5001953 C45.4939765,72.5001953 45.8435913,72.1505805 45.8435913,71.7189331 L45.8435913,68.5938843 C45.8435913,68.1626275 45.4939765,67.8126221 45.0623291,67.8126221 L45.0623291,67.8126221 Z M38.8126221,67.8126221 L35.6875732,67.8126221 C35.2559259,67.8126221 34.906311,68.1626275 34.906311,68.5938843 L34.906311,71.7189331 C34.906311,72.1505805 35.2559259,72.5001953 35.6875732,72.5001953 L38.8126221,72.5001953 C39.2438788,72.5001953 39.5938843,72.1505805 39.5938843,71.7189331 L39.5938843,68.5938843 C39.5938843,68.1626275 39.2438788,67.8126221 38.8126221,67.8126221 L38.8126221,67.8126221 Z M51.3124268,67.8126221 L48.1873779,67.8126221 C47.7561212,67.8126221 47.4061157,68.1626275 47.4061157,68.5938843 L47.4061157,71.7189331 C47.4061157,72.1505805 47.7561212,72.5001953 48.1873779,72.5001953 L51.3124268,72.5001953 C51.7440741,72.5001953 52.093689,72.1505805 52.093689,71.7189331 L52.093689,68.5938843 C52.093689,68.1626275 51.7440741,67.8126221 51.3124268,67.8126221 L51.3124268,67.8126221 Z M44.2810669,70.9376709 L42.7185425,70.9376709 L42.7185425,69.3751465 L44.2810669,69.3751465 L44.2810669,70.9376709 L44.2810669,70.9376709 Z M38.0313599,70.9376709 L36.4688355,70.9376709 L36.4688355,69.3751465 L38.0313599,69.3751465 L38.0313599,70.9376709 L38.0313599,70.9376709 Z M50.5311645,70.9376709 L48.9686401,70.9376709 L48.9686401,69.3751465 L50.5311645,69.3751465 L50.5311645,70.9376709 L50.5311645,70.9376709 Z M54.4374756,80.3128174 L32.5625244,80.3128174 L32.5625244,63.1250488 L34.906311,63.1250488 L34.906311,63.906311 C34.906311,64.3379584 35.2559259,64.6875732 35.6875732,64.6875732 L38.0313599,64.6875732 C38.4626166,64.6875732 38.8126221,64.3379584 38.8126221,63.906311 L38.8126221,63.1250488 L48.1873779,63.1250488 L48.1873779,63.906311 C48.1873779,64.3379584 48.5373834,64.6875732 48.9686401,64.6875732 L51.3124268,64.6875732 C51.7440741,64.6875732 52.093689,64.3379584 52.093689,63.906311 L52.093689,63.1250488 L54.4374756,63.1250488 L54.4374756,80.3128174 L54.4374756,80.3128174 Z M49.7499023,61.5625244 L50.5311645,61.5625244 L50.5311645,63.1250488 L49.7499023,63.1250488 L49.7499023,61.5625244 L49.7499023,61.5625244 Z M36.4688355,61.5625244 L37.2500977,61.5625244 L37.2500977,63.1250488 L36.4688355,63.1250488 L36.4688355,61.5625244 L36.4688355,61.5625244 Z M55.2187378,61.5625244 L52.093689,61.5625244 L52.093689,60.7812622 C52.093689,60.3500055 51.7440741,60 51.3124268,60 L48.9686401,60 C48.5373834,60 48.1873779,60.3500055 48.1873779,60.7812622 L48.1873779,61.5625244 L38.8126221,61.5625244 L38.8126221,60.7812622 C38.8126221,60.3500055 38.4626166,60 38.0313599,60 L35.6875732,60 C35.2559259,60 34.906311,60.3500055 34.906311,60.7812622 L34.906311,61.5625244 L31.7812622,61.5625244 C31.3496148,61.5625244 31,61.9125299 31,62.3437866 L31,81.0940796 C31,81.525727 31.3496148,81.8753418 31.7812622,81.8753418 L55.2187378,81.8753418 C55.6499945,81.8753418 56,81.525727 56,81.0940796 L56,62.3437866 C56,61.9125299 55.6499945,61.5625244 55.2187378,61.5625244 L55.2187378,61.5625244 Z" id="66"></path>
        </g>
    </g>
</svg>