<?xml version="1.0" encoding="UTF-8"?>
<svg width="30px" height="25px" viewBox="0 0 30 25" version="1.1" xmlns="http://www.w3.org/2000/svg" xmlns:xlink="http://www.w3.org/1999/xlink">
    <!-- Generator: Sketch 43.1 (39012) - http://www.bohemiancoding.com/sketch -->
    <title>58</title>
    <desc>Created with Sketch.</desc>
    <defs></defs>
    <g id="Page-1" stroke="none" stroke-width="1" fill="none" fill-rule="evenodd">
        <g id="Icons" transform="translate(-98.000000, -6.000000)" fill="#ffffff">
            <path d="M99.8991989,24.4674107 L98.0466623,29.8245536 C97.9540355,30.0973214 98.0003489,30.3964286 98.1763399,30.6290179 C98.3476995,30.8625 98.6302114,31 98.9266172,31 L126.714666,31 C127.011072,31 127.288953,30.8625 127.464944,30.6290179 C127.636303,30.3964286 127.687248,30.0973214 127.58999,29.8245536 L125.737453,24.4674107 C125.640195,24.1883929 125.408628,23.9727679 125.116853,23.8915179 L118.632975,22.1058036 C118.40604,22.0441964 118.169841,22.0660714 117.961431,22.165625 L112.820642,24.6446429 L107.675221,22.165625 C107.466811,22.0660714 107.230613,22.0441964 107.008308,22.1058036 L100.52443,23.8915179 C100.228024,23.9727679 99.9964571,24.1883929 99.8991989,24.4674107 L99.8991989,24.4674107 Z M107.170405,23.9183036 L112.403821,26.4415179 C112.663176,26.5674107 112.973476,26.5674107 113.232831,26.4415179 L118.466247,23.9183036 L124.135009,25.4790179 L125.427153,29.2142857 L100.209499,29.2142857 L101.501643,25.4790179 L107.170405,23.9183036 L107.170405,23.9183036 Z M112.820642,22.9642857 C116.650761,22.9642857 119.767654,19.159375 119.767654,14.4821429 C119.767654,9.80535714 116.650761,6 112.820642,6 C108.990522,6 105.873629,9.80535714 105.873629,14.4821429 C105.873629,19.159375 108.990522,22.9642857 112.820642,22.9642857 L112.820642,22.9642857 Z M112.820642,7.78571429 C115.580921,7.78571429 117.915117,10.8522321 117.915117,14.4821429 C117.915117,18.1120536 115.580921,21.1785714 112.820642,21.1785714 C110.055731,21.1785714 107.726166,18.1120536 107.726166,14.4821429 C107.726166,10.8522321 110.055731,7.78571429 112.820642,7.78571429 L112.820642,7.78571429 Z" id="58"></path>
        </g>
    </g>
</svg>