<?xml version="1.0" encoding="UTF-8"?>
<svg width="27px" height="25px" viewBox="0 0 27 25" version="1.1" xmlns="http://www.w3.org/2000/svg" xmlns:xlink="http://www.w3.org/1999/xlink">
    <!-- Generator: Sketch 43.1 (39012) - http://www.bohemiancoding.com/sketch -->
    <title>59</title>
    <desc>Created with Sketch.</desc>
    <defs></defs>
    <g id="Page-1" stroke="none" stroke-width="1" fill="none" fill-rule="evenodd">
        <g id="Icons" transform="translate(-75.000000, -4.000000)" fill="#ffffff">
            <path d="M76.7106597,22.9029167 L75.0439931,27.9029167 C74.9564931,28.1575 75.0023264,28.4366667 75.1564931,28.65375 C75.3148264,28.8716667 75.5648264,29 75.8356597,29 L100.831493,29 C101.102326,29 101.352326,28.8716667 101.51066,28.65375 C101.664826,28.4366667 101.71066,28.1575 101.62316,27.9029167 L99.9564931,22.9029167 C99.8689931,22.6425 99.6606597,22.44125 99.3939931,22.3654167 L93.5648264,20.69875 C93.3606597,20.64125 93.1481597,20.6616667 92.9606597,20.7545833 L88.3356597,23.0683333 L83.7064931,20.7545833 C83.5189931,20.6616667 83.3064931,20.64125 83.1023264,20.69875 L77.2689931,22.3654167 C77.0064931,22.44125 76.7981597,22.6425 76.7106597,22.9029167 L76.7106597,22.9029167 Z M83.2523264,22.3904167 L87.9606597,24.7454167 C88.1939931,24.8629167 88.4731597,24.8629167 88.7064931,24.7454167 L93.4148264,22.3904167 L98.5148264,23.8470833 L99.6773264,27.3333333 L76.9898264,27.3333333 L78.1523264,23.8470833 L83.2523264,22.3904167 L83.2523264,22.3904167 Z M88.3356597,21.5 C91.9481597,21.5 95.0023264,17.8745833 95.0023264,13.5833333 C95.0023264,9.29208333 91.9481597,5.66666667 88.3356597,5.66666667 C84.7189931,5.66666667 81.6689931,9.29208333 81.6689931,13.5833333 C81.6689931,17.8745833 84.7189931,21.5 88.3356597,21.5 L88.3356597,21.5 Z M88.3356597,7.33333333 C91.0439931,7.33333333 93.3356597,10.1954167 93.3356597,13.5833333 C93.3356597,16.97125 91.0439931,19.8333333 88.3356597,19.8333333 C85.6231597,19.8333333 83.3356597,16.97125 83.3356597,13.5833333 C83.3356597,10.1954167 85.6231597,7.33333333 88.3356597,7.33333333 L88.3356597,7.33333333 Z M100.831493,6.5 L99.1689931,6.5 L99.1689931,4.83333333 C99.1689931,4.37333333 98.7939931,4 98.3356597,4 C97.8731597,4 97.5023264,4.37333333 97.5023264,4.83333333 L97.5023264,6.5 L95.8356597,6.5 C95.3731597,6.5 95.0023264,6.87333333 95.0023264,7.33333333 C95.0023264,7.79375 95.3731597,8.16666667 95.8356597,8.16666667 L97.5023264,8.16666667 L97.5023264,9.83333333 C97.5023264,10.29375 97.8731597,10.6666667 98.3356597,10.6666667 C98.7939931,10.6666667 99.1689931,10.29375 99.1689931,9.83333333 L99.1689931,8.16666667 L100.831493,8.16666667 C101.293993,8.16666667 101.668993,7.79375 101.668993,7.33333333 C101.668993,6.87333333 101.293993,6.5 100.831493,6.5 L100.831493,6.5 Z" id="59"></path>
        </g>
    </g>
</svg>