<?xml version="1.0" encoding="UTF-8"?>
<svg width="25px" height="25px" viewBox="0 0 25 25" version="1.1" xmlns="http://www.w3.org/2000/svg" xmlns:xlink="http://www.w3.org/1999/xlink">
    <!-- Generator: Sketch 43.1 (39012) - http://www.bohemiancoding.com/sketch -->
    <title>08</title>
    <desc>Created with Sketch.</desc>
    <defs></defs>
    <g id="Page-1" stroke="none" stroke-width="1" fill="none" fill-rule="evenodd">
        <g id="Icons" transform="translate(-8.000000, -29.000000)" fill="#D5606C">
            <path d="M20.5,54 C23.8359375,54 26.9765625,52.6995891 29.3359375,50.3386147 C31.6992188,47.9780309 33,44.8389194 33,41.4998047 C33,38.1610806 31.6992188,35.0223597 29.3359375,32.6613853 C26.9765625,30.3004109 23.8359375,29 20.5,29 C17.1601563,29 14.0195313,30.3004109 11.6601562,32.6613853 C9.30078125,35.0223597 8,38.1610806 8,41.4998047 C8,44.8389194 9.30078125,47.9780309 11.6601562,50.3386147 C14.0195313,52.6995891 17.1601563,54 20.5,54 L20.5,54 Z M20.5,52.4374756 C17.578125,52.4374756 14.8320313,51.2999578 12.765625,49.2335193 C10.6992188,47.167862 9.5625,44.4213347 9.5625,41.4998047 C9.5625,38.5786653 10.6992188,35.832138 12.765625,33.7660901 C14.8320313,31.7000422 17.578125,30.5625244 20.5,30.5625244 C23.421875,30.5625244 26.1679687,31.7000422 28.2304687,33.7664807 C30.296875,35.832138 31.4375,38.5786653 31.4375,41.4998047 C31.4375,44.4213347 30.296875,47.167862 28.2304687,49.2339099 C26.1679687,51.2999578 23.421875,52.4374756 20.5,52.4374756 L20.5,52.4374756 Z M14.8671875,47.130752 C15.0195312,47.2830982 15.2226562,47.3596619 15.421875,47.3596619 C15.6210937,47.3596619 15.8203125,47.2830982 15.9726563,47.130752 L20.5,42.6049001 L25.0234375,47.130752 C25.1757812,47.2830982 25.3789062,47.3596619 25.578125,47.3596619 C25.7773437,47.3596619 25.9765625,47.2830982 26.1289063,47.130752 C26.4335937,46.8256692 26.4335937,46.3307395 26.1289063,46.0256567 L21.6054687,41.4998047 L26.1289063,36.9743433 C26.4335937,36.6692605 26.4335937,36.1743308 26.1289063,35.869248 C25.8242188,35.5641651 25.328125,35.5641651 25.0234375,35.869248 L20.5,40.3950999 L15.9726563,35.869248 C15.6679688,35.5641651 15.171875,35.5641651 14.8671875,35.869248 C14.5625,36.1743308 14.5625,36.6692605 14.8671875,36.9743433 L19.3945313,41.4998047 L14.8671875,46.0256567 C14.5625,46.3307395 14.5625,46.8256692 14.8671875,47.130752 L14.8671875,47.130752 Z" id="08"></path>
        </g>
    </g>
</svg>