<?xml version="1.0" encoding="UTF-8"?>
<svg width="15px" height="15px" viewBox="0 0 15 15" version="1.1" xmlns="http://www.w3.org/2000/svg" xmlns:xlink="http://www.w3.org/1999/xlink">
    <!-- Generator: Sketch 43.1 (39012) - http://www.bohemiancoding.com/sketch -->
    <title>08-path</title>
    <desc>Created with Sketch.</desc>
    <defs></defs>
    <g id="Symbols" stroke="none" stroke-width="1" fill="none" fill-rule="evenodd">
        <path d="M0.27421875,13.7883795 C0.45703125,13.9711949 0.70078125,14.0630713 0.93984375,14.0630713 C1.17890625,14.0630713 1.41796875,13.9711949 1.60078125,13.7883795 L7.03359375,8.35735715 L12.4617187,13.7883795 C12.6445313,13.9711949 12.8882813,14.0630713 13.1273438,14.0630713 C13.3664063,14.0630713 13.6054688,13.9711949 13.7882813,13.7883795 C14.1539063,13.42228 14.1539063,12.8283645 13.7882813,12.462265 L8.36015625,7.03124268 L13.7882813,1.60068907 C14.1539063,1.2345896 14.1539063,0.640674073 13.7882813,0.274574603 C13.4226563,-0.0915248676 12.8273437,-0.0915248676 12.4617187,0.274574603 L7.03359375,5.70559696 L1.60078125,0.274574603 C1.23515625,-0.0915248676 0.63984375,-0.0915248676 0.27421875,0.274574603 C-0.09140625,0.640674073 -0.09140625,1.2345896 0.27421875,1.60068907 L5.70703125,7.03124268 L0.27421875,12.462265 C-0.09140625,12.8283645 -0.09140625,13.42228 0.27421875,13.7883795 L0.27421875,13.7883795 Z" id="08-path" fill="#D5606C"></path>
    </g>
</svg>