<?xml version="1.0" encoding="UTF-8"?>
<svg width="45px" height="45px" viewBox="0 0 45 45" version="1.1" xmlns="http://www.w3.org/2000/svg" xmlns:xlink="http://www.w3.org/1999/xlink">
    <!-- Generator: Sketch 43.1 (39012) - http://www.bohemiancoding.com/sketch -->
    <title>Group 2</title>
    <desc>Created with Sketch.</desc>
    <defs></defs>
    <g id="Symbols" stroke="none" stroke-width="1" fill="none" fill-rule="evenodd">
        <g id="zorgvrager-verwijderen-icon">
            <g id="Group-2">
                <rect id="Rectangle-4-Copy-3" stroke="#A19194" stroke-width="2" x="1" y="1" width="42.53125" height="43" rx="21.265625"></rect>
                <path d="M11.0340521,28.6926452 L9.41766587,33.8650813 C9.33280559,34.1284445 9.37725621,34.4172389 9.52677194,34.6418088 C9.68032864,34.8672408 9.92278658,35 10.1814084,35 L34.4272025,35 C34.6858244,35 34.9323233,34.8672408 35.08588,34.6418088 C35.2353957,34.4172389 35.2758053,34.1284445 35.194986,33.8650813 L33.5785998,28.6926452 C33.4937395,28.4232475 33.2916912,28.215057 33.0330694,28.1366083 L27.3757174,26.412463 C27.1817511,26.35298 26.9756618,26.3741008 26.7938184,26.4702219 L22.3043055,28.8637667 L17.8188335,26.4702219 C17.6369901,26.3741008 17.4309008,26.35298 17.2328935,26.412463 L11.5755415,28.1366083 C11.3209607,28.215057 11.1189124,28.4232475 11.0340521,28.6926452 L11.0340521,28.6926452 Z M17.3783683,28.1624705 L21.9446595,30.5986879 C22.1709536,30.7202402 22.4416983,30.7202402 22.6679924,30.5986879 L27.2342836,28.1624705 L32.1804256,29.6693736 L33.307855,33.2758546 L11.3047968,33.2758546 L12.4322263,29.6693736 L17.3783683,28.1624705 L17.3783683,28.1624705 Z M22.3043055,27.2413459 C25.8118637,27.2413459 28.7698506,23.4908987 28.7698506,19.0516554 C28.7698506,14.6124121 25.8118637,10.8619649 22.3043055,10.8619649 C18.8007882,10.8619649 15.8387604,14.6124121 15.8387604,19.0516554 C15.8387604,23.4908987 18.8007882,27.2413459 22.3043055,27.2413459 L22.3043055,27.2413459 Z M22.3043055,12.5861103 C24.9349741,12.5861103 27.1534643,15.5468989 27.1534643,19.0516554 C27.1534643,22.5564119 24.9349741,25.5172005 22.3043055,25.5172005 C19.6776778,25.5172005 17.4551466,22.5564119 17.4551466,19.0516554 C17.4551466,15.5468989 19.6776778,12.5861103 22.3043055,12.5861103 L22.3043055,12.5861103 Z M29.0082676,15.7818137 C29.1658652,15.9503489 29.3719545,16.034401 29.5780437,16.034401 C29.7881739,16.034401 29.9942632,15.9503489 30.1518608,15.7818137 L31.5985266,14.2361174 L33.0492332,15.7818137 C33.2068309,15.9503489 33.4129202,16.034401 33.6190094,16.034401 C33.8250987,16.034401 34.0352289,15.9503489 34.1928265,15.7818137 C34.5080219,15.4451743 34.5080219,14.8999134 34.1928265,14.5628429 L32.7421199,13.0171466 L34.1928265,11.4714503 C34.5080219,11.1348109 34.5080219,10.58955 34.1928265,10.2524795 C33.8776312,9.91584015 33.3644286,9.91584015 33.0492332,10.2524795 L31.5985266,11.7981759 L30.1518608,10.2524795 C29.8366655,9.91584015 29.3234629,9.91584015 29.0082676,10.2524795 C28.6930722,10.58955 28.6930722,11.1348109 29.0082676,11.4714503 L30.4549333,13.0171466 L29.0082676,14.5628429 C28.6930722,14.8999134 28.6930722,15.4451743 29.0082676,15.7818137 L29.0082676,15.7818137 Z" id="60" fill="#A19194"></path>
            </g>
        </g>
    </g>
</svg>