<?xml version="1.0" encoding="UTF-8"?>
<svg width="25px" height="25px" viewBox="0 0 25 25" version="1.1" xmlns="http://www.w3.org/2000/svg" xmlns:xlink="http://www.w3.org/1999/xlink">
    <!-- Generator: Sketch 43.1 (39012) - http://www.bohemiancoding.com/sketch -->
    <title>81</title>
    <desc>Created with Sketch.</desc>
    <defs></defs>
    <g id="Page-1" stroke="none" stroke-width="1" fill="none" fill-rule="evenodd">
        <g id="Icons" transform="translate(-75.000000, -29.000000)" fill="#a19194">
            <path d="M76.6097999,53.8632031 L82.3425549,51.3125159 C82.8357037,51.0926291 83.4962993,50.6408616 83.8783498,50.2570592 L99.5324278,34.5971192 C99.8337521,34.2972735 100,33.8934814 100,33.4657015 C100,33.0379217 99.8337521,32.6341295 99.5324278,32.3342839 L96.6662501,29.4677592 C96.3649258,29.1679136 95.9636928,29 95.5360841,29 C95.1088749,29 94.707642,29.1679136 94.4059181,29.4677592 L78.3522057,45.5274934 C77.9657593,45.9152938 77.5169699,46.5869481 77.3087604,47.0946868 L75.1199629,52.4119501 C74.8825801,52.9876538 75.0504265,53.3794521 75.1715157,53.5593595 C75.3577454,53.8392155 75.6666627,53.9991332 76.0187406,53.9991332 C76.2069684,53.9991332 76.4055867,53.9511578 76.6097999,53.8632031 Z M79.8820061,46.2591169 L93.1382778,32.9979423 L96.0044556,35.8644669 L82.7481838,49.1256415 L79.8820061,46.2591169 Z M98.4022618,33.4657015 L97.1346216,34.7330492 L94.2688435,31.8665246 L95.5360841,30.5991769 L98.4022618,33.4657015 Z M78.8773253,47.5144708 L81.3602536,50.0011909 L77.0537936,51.9122073 L78.7870079,47.702374 C78.8101867,47.6464029 78.8421575,47.5824358 78.8773253,47.5144708 Z" id="81"></path>
        </g>
    </g>
</svg>