<?xml version="1.0" encoding="UTF-8"?>
<svg width="25px" height="25px" viewBox="0 0 25 25" version="1.1" xmlns="http://www.w3.org/2000/svg" xmlns:xlink="http://www.w3.org/1999/xlink">
    <!-- Generator: Sketch 43.1 (39012) - http://www.bohemiancoding.com/sketch -->
    <title>81</title>
    <desc>Created with Sketch.</desc>
    <defs></defs>
    <g id="Symbols" stroke="none" stroke-width="1" fill="none" fill-rule="evenodd" opacity="0.481487772">
        <g id="zorgvrager-verwijderen-icon" transform="translate(-12.000000, -65.000000)" fill="#3D1A22">
            <path d="M13.0191835,90 C13.2074931,90 13.4061977,89.952023 13.6104996,89.8640652 L19.3457467,87.3132896 C19.8391099,87.0933952 20.4999927,86.641612 20.8822092,86.2577963 L36.543092,70.5973133 C36.8445473,70.2974572 37.0108675,69.893651 37.0108675,69.4658564 C37.0108675,69.0380617 36.8445473,68.6342556 36.543092,68.3343995 L33.6756683,65.4677755 C33.374213,65.1679194 32.9728057,65 32.5450111,65 C32.1176162,65 31.7162089,65.1679194 31.4143538,65.4677755 L15.3536629,81.5280665 C14.9670485,81.9158804 14.518064,82.587558 14.309764,83.0953142 L12.1200151,88.4127619 C11.8825291,88.9884855 12.0504485,89.3802975 12.1715903,89.5602111 C12.3579009,89.8400768 12.6669525,90 13.0191835,90 L13.0191835,90 Z M19.7515519,85.1263394 L19.7515519,85.1263394 L16.8841283,82.2597153 L30.1461625,68.9980809 L33.0135861,71.8647049 L19.7515519,85.1263394 L19.7515519,85.1263394 Z M32.5450111,66.5992324 L35.4124347,69.4658564 L34.1442434,70.733248 L31.2772196,67.866624 L32.5450111,66.5992324 L32.5450111,66.5992324 Z M15.7886541,83.7030225 C15.811843,83.6470494 15.8438276,83.5830801 15.8790107,83.5151127 L18.3630184,86.0019191 L14.0546864,87.9130018 L15.7886541,83.7030225 L15.7886541,83.7030225 Z" id="81"></path>
        </g>
    </g>
</svg>