<?xml version="1.0" encoding="UTF-8"?>
<svg width="18px" height="25px" viewBox="0 0 18 25" version="1.1" xmlns="http://www.w3.org/2000/svg" xmlns:xlink="http://www.w3.org/1999/xlink">
    <!-- Generator: Sketch 43.1 (39012) - http://www.bohemiancoding.com/sketch -->
    <title>29</title>
    <desc>Created with Sketch.</desc>
    <defs></defs>
    <g id="Page-1" stroke="none" stroke-width="1" fill="none" fill-rule="evenodd">
        <g id="Icons" transform="translate(-68.000000, -84.000000)" fill="#D5606C">
            <path d="M68.7812622,84 C68.3476617,84 68,84.3496148 68,84.7812622 L68,108.218738 C68,108.650385 68.3476617,109 68.7812622,109 C69.2109564,109 69.5625244,108.650385 69.5625244,108.218738 L69.5625244,96.4998047 L84.4065064,96.4998047 C84.6760418,96.4998047 84.9260457,96.3599587 85.0705792,96.1294864 C85.2112064,95.899014 85.2229254,95.6115096 85.1018297,95.3693183 L82.9338271,91.0313599 L85.1018297,86.6930108 C85.2229254,86.4508195 85.2112064,86.1633151 85.0705792,85.9328427 C84.9260457,85.7023703 84.6760418,85.5625244 84.4065064,85.5625244 L69.5625244,85.5625244 L69.5625244,84.7812622 C69.5625244,84.3496148 69.2109564,84 68.7812622,84 L68.7812622,84 Z M83.1408616,87.1250488 L81.3634901,90.681745 C81.250207,90.9016703 81.250207,91.1606588 81.3634901,91.3805841 L83.1408616,94.9372803 L69.5625244,94.9372803 L69.5625244,87.1250488 L83.1408616,87.1250488 L83.1408616,87.1250488 Z" id="29"></path>
        </g>
    </g>
</svg>