<?xml version="1.0" encoding="UTF-8"?>
<svg width="25px" height="25px" viewBox="0 0 25 25" version="1.1" xmlns="http://www.w3.org/2000/svg" xmlns:xlink="http://www.w3.org/1999/xlink">
    <!-- Generator: Sketch 43.1 (39012) - http://www.bohemiancoding.com/sketch -->
    <title>129</title>
    <desc>Created with Sketch.</desc>
    <defs></defs>
    <g id="Page-1" stroke="none" stroke-width="1" fill="none" fill-rule="evenodd">
        <g id="Icons" transform="translate(-31.000000, -84.000000)" fill="#D5606C">
            <path d="M46.6273791,109 L51.3152453,109 C51.7449664,109 52.0965564,108.652317 52.0965564,108.218689 L52.0965564,97.2803344 L55.2218005,97.2803344 C55.5343249,97.2803344 55.8195035,97.0889132 55.9406067,96.7998281 C56.0617099,96.5068365 55.9952985,96.1708727 55.7726248,95.9481991 L44.0529592,84.2285335 C43.7482479,83.9238222 43.2521154,83.9238222 42.9474041,84.2285335 L31.2277385,95.9481991 C31.0050649,96.1708727 30.9386534,96.5068365 31.0597566,96.7998281 C31.1808598,97.0889132 31.4660384,97.2803344 31.7824693,97.2803344 L34.9077135,97.2803344 L34.9077135,108.218689 C34.9077135,108.652317 35.2553969,109 35.6890245,109 L40.3768908,109 C40.8066118,109 41.1582018,108.652317 41.1582018,108.218689 L41.1582018,102.749512 L45.8460681,102.749512 L45.8460681,108.218689 C45.8460681,108.652317 46.1937515,109 46.6273791,109 L46.6273791,109 Z M40.3768908,101.18689 C39.9432631,101.18689 39.5955797,101.53848 39.5955797,101.968201 L39.5955797,107.437378 L36.4703356,107.437378 L36.4703356,96.4990234 C36.4703356,96.0693023 36.1187456,95.7177123 35.6890245,95.7177123 L33.6654289,95.7177123 L43.5021349,85.8849129 L53.3349344,95.7177123 L51.3152453,95.7177123 C50.8816177,95.7177123 50.5339343,96.0693023 50.5339343,96.4990234 L50.5339343,107.437378 L47.4086901,107.437378 L47.4086901,101.968201 C47.4086901,101.53848 47.0571002,101.18689 46.6273791,101.18689 L40.3768908,101.18689 L40.3768908,101.18689 Z" id="129"></path>
        </g>
    </g>
</svg>