<?xml version="1.0" encoding="UTF-8"?>
<svg width="111px" height="126px" viewBox="0 0 111 126" version="1.1" xmlns="http://www.w3.org/2000/svg" xmlns:xlink="http://www.w3.org/1999/xlink">
    <!-- Generator: Sketch 43.1 (39012) - http://www.bohemiancoding.com/sketch -->
    <title>Wachwoord group</title>
    <desc>Created with Sketch.</desc>
    <defs></defs>
    <g id="Page-1" stroke="none" stroke-width="1" fill="none" fill-rule="evenodd">
        <g id="Email-versturen-mislukt" transform="translate(-371.000000, -450.000000)" fill="#FFFFFF">
            <g id="Wachwoord-group" transform="translate(356.000000, 432.000000)">
                <g id="Group-2">
                    <g id="Group-3">
                        <path d="M79.0302499,73.7481082 L0.86273075,73.7481082 C-1.67725597,73.7481082 -3.71382189,75.7947491 -3.71382189,78.316503 C-3.71382189,80.8405411 -1.67725597,82.8848978 0.86273075,82.8848978 L5.43928339,82.8848978 L5.43928339,96.5900822 C5.43928339,99.1141203 7.47584932,101.158477 10.015836,101.158477 C12.53294,101.158477 14.5923887,99.1141203 14.5923887,96.5900822 L14.5923887,82.8848978 L23.745494,82.8848978 L23.745494,87.4532926 C23.745494,89.9773307 25.7820599,92.0216874 28.3220466,92.0216874 C30.8391506,92.0216874 32.8985992,89.9773307 32.8985992,87.4532926 L32.8985992,82.8848978 L79.0302499,82.8848978 C81.2498779,98.3580509 94.5905289,110.295267 110.699994,110.295267 C128.365487,110.295267 142.735863,95.9505069 142.735863,78.316503 C142.735863,60.6847833 128.365487,46.3400236 110.699994,46.3400236 C94.5905289,46.3400236 81.2498779,58.2772392 79.0302499,73.7481082 Z M86.6558442,78.4477181 C86.6558442,65.8526537 96.9073221,55.6080283 109.538607,55.6080283 C122.14701,55.6080283 132.421371,65.8526537 132.421371,78.4477181 C132.421371,91.0450668 122.14701,101.289692 109.538607,101.289692 C96.9073221,101.289692 86.6558442,91.0450668 86.6558442,78.4477181 Z" id="28-copy" transform="translate(69.511020, 78.317645) rotate(-306.000000) translate(-69.511020, -78.317645) "></path>
                    </g>
                </g>
            </g>
        </g>
    </g>
</svg>