<?xml version="1.0" encoding="UTF-8"?>
<svg width="25px" height="25px" viewBox="0 0 25 25" version="1.1" xmlns="http://www.w3.org/2000/svg" xmlns:xlink="http://www.w3.org/1999/xlink">
    <!-- Generator: Sketch 43.1 (39012) - http://www.bohemiancoding.com/sketch -->
    <title>Group 6</title>
    <desc>Created with Sketch.</desc>
    <defs></defs>
    <g id="Page-1" stroke="none" stroke-width="1" fill="none" fill-rule="evenodd">
        <g id="Icons" transform="translate(-130.000000, -123.000000)" fill="#D5606C">
            <g id="Group-6" transform="translate(130.000000, 123.000000)">
                <g id="Group" transform="translate(7.500000, 5.000000)" stroke-width="0.5" stroke="#D5606C">
                    <polygon id="Fill-1" points="0 0 0 0.375 0 14.625 0 15 0.36627907 15 9.88953488 15 10.255814 15 10.255814 14.625 10.255814 9.375 9.52329584 9.375 9.52329584 14.250041 0.73255814 14.250041 0.73255814 0.75 9.52329584 0.75 9.52329584 5.625 10.255814 5.625 10.255814 0.375 10.255814 0"></polygon>
                    <path d="M14.5980538,6.99976029 L12.4538601,4.7557439 C12.3124724,4.6075062 12.0804956,4.6050062 11.9359455,4.74976029 C11.7913953,4.89447341 11.7886733,5.13226029 11.930101,5.2800062 L13.4711552,6.892998 L5.59883721,6.892998 C5.49948151,6.892998 5.23255814,6.89320292 5.23255814,6.89320292 L5.23255814,7.267998 L5.23255814,7.6427521 C5.23255814,7.6427521 5.50384483,7.642998 5.59883721,7.642998 L13.470915,7.642998 L11.9298608,9.2559898 C11.7884331,9.4037357 11.7911552,9.64148161 11.9357053,9.7862357 C12.0804956,9.9309898 12.3122322,9.9284898 12.4536199,9.7802521 L14.6034579,7.53021111 C14.7448056,7.38226029 14.7423637,7.14447341 14.5980538,6.99976029" id="Fill-2"></path>
                </g>
                <path d="M12.5001953,0 C9.16147127,0 6.02275036,1.30041094 3.66177597,3.66138533 C1.30080158,6.02235972 0,9.16108064 0,12.4998047 C0,15.8389194 1.30080158,18.9780309 3.66177597,21.3386147 C6.02275036,23.6995891 9.16147127,25 12.5001953,25 C15.8389194,25 18.9776403,23.6995891 21.3386147,21.3386147 C23.6999797,18.9780309 25.0003906,15.8389194 25.0003906,12.4998047 C25.0003906,9.16108064 23.6999797,6.02235972 21.3386147,3.66138533 C18.9776403,1.30041094 15.8389194,0 12.5001953,0 L12.5001953,0 Z M20.2335193,20.2339099 C18.167862,22.2999578 15.4213347,23.4374756 12.5001953,23.4374756 C9.57905592,23.4374756 6.83252863,22.2999578 4.76648073,20.2335193 C2.70043282,18.167862 1.56252441,15.4213347 1.56252441,12.4998047 C1.56252441,9.57866529 2.70043282,6.832138 4.76687136,4.7660901 C6.83252863,2.70004219 9.57905592,1.56252441 12.5001953,1.56252441 C15.4213347,1.56252441 18.167862,2.70004219 20.2339099,4.76648073 C22.2999578,6.832138 23.4378662,9.57866529 23.4378662,12.4998047 C23.4378662,15.4213347 22.2999578,18.167862 20.2335193,20.2339099 L20.2335193,20.2339099 Z" id="04-copy-2"></path>
            </g>
        </g>
    </g>
</svg>