<?xml version="1.0" encoding="UTF-8"?>
<svg width="25px" height="23px" viewBox="0 0 25 23" version="1.1" xmlns="http://www.w3.org/2000/svg" xmlns:xlink="http://www.w3.org/1999/xlink">
    <!-- Generator: Sketch 43.1 (39012) - http://www.bohemiancoding.com/sketch -->
    <title>31</title>
    <desc>Created with Sketch.</desc>
    <defs></defs>
    <g id="Page-1" stroke="none" stroke-width="1" fill="none" fill-rule="evenodd">
        <g id="Icons" transform="translate(-80.000000, -61.000000)" fill="#D5606C">
            <path d="M80,78.1877686 C80,78.6194159 80.3500055,78.9690308 80.7812622,78.9690308 L86.2500977,78.9690308 L86.2500977,82.8753418 C86.2500977,83.1808153 86.4274442,83.4577728 86.7047923,83.5851185 C86.8090908,83.6331661 86.9204206,83.656604 87.0309692,83.656604 C87.2141752,83.656604 87.3954281,83.5925405 87.5399616,83.4687104 L92.7888717,78.9690308 L104.218738,78.9690308 C104.650385,78.9690308 105,78.6194159 105,78.1877686 L105,61.7812622 C105,61.3500055 104.650385,61 104.218738,61 L80.7812622,61 C80.3500055,61 80,61.3500055 80,61.7812622 L80,78.1877686 L80,78.1877686 Z M81.5625244,62.5625244 L103.437476,62.5625244 L103.437476,77.4065064 L92.5001953,77.4065064 C92.3134736,77.4065064 92.1333927,77.4733043 91.9915936,77.5947905 L87.8126221,81.1768778 L87.8126221,78.1877686 C87.8126221,77.7565118 87.4626166,77.4065064 87.0313599,77.4065064 L81.5625244,77.4065064 L81.5625244,62.5625244 L81.5625244,62.5625244 Z M101.874951,73.8908264 C101.874951,73.4595697 101.525336,73.1095642 101.093689,73.1095642 L83.906311,73.1095642 C83.4746637,73.1095642 83.1250488,73.4595697 83.1250488,73.8908264 C83.1250488,74.3224738 83.4746637,74.6720886 83.906311,74.6720886 L101.093689,74.6720886 C101.525336,74.6720886 101.874951,74.3224738 101.874951,73.8908264 L101.874951,73.8908264 Z M83.906311,70.7657776 L101.093689,70.7657776 C101.525336,70.7657776 101.874951,70.4161628 101.874951,69.9845154 C101.874951,69.5532586 101.525336,69.2032532 101.093689,69.2032532 L83.906311,69.2032532 C83.4746637,69.2032532 83.1250488,69.5532586 83.1250488,69.9845154 C83.1250488,70.4161628 83.4746637,70.7657776 83.906311,70.7657776 L83.906311,70.7657776 Z M83.906311,66.8594666 L101.093689,66.8594666 C101.525336,66.8594666 101.874951,66.5098517 101.874951,66.0782043 C101.874951,65.6469476 101.525336,65.2969421 101.093689,65.2969421 L83.906311,65.2969421 C83.4746637,65.2969421 83.1250488,65.6469476 83.1250488,66.0782043 C83.1250488,66.5098517 83.4746637,66.8594666 83.906311,66.8594666 L83.906311,66.8594666 Z" id="31"></path>
        </g>
    </g>
</svg>