<?xml version="1.0" encoding="UTF-8"?>
<svg width="26px" height="26px" viewBox="0 0 26 26" version="1.1" xmlns="http://www.w3.org/2000/svg" xmlns:xlink="http://www.w3.org/1999/xlink">
    <!-- Generator: Sketch 43.1 (39012) - http://www.bohemiancoding.com/sketch -->
    <title>Group 9</title>
    <desc>Created with Sketch.</desc>
    <defs></defs>
    <g id="Page-1" stroke="none" stroke-width="1" fill="none" fill-rule="evenodd">
        <g id="Icons" transform="translate(-102.000000, -58.000000)" fill="#D5606C">
            <g id="Group-9" transform="translate(102.000000, 58.000000)">
                <path d="M5.32907052e-15,20.5570819 C5.32907052e-15,20.9808811 0.330914261,21.3241393 0.738647905,21.3241393 L5.90918324,21.3241393 L5.90918324,25.1594265 C5.90918324,25.459346 6.07685631,25.7312678 6.33907632,25.8562982 C6.43768582,25.9034722 6.54294314,25.9264839 6.64746182,25.9264839 C6.82067475,25.9264839 6.99204107,25.8635852 7.12869093,25.7420066 L12.0912969,21.3241393 L22.8977157,21.3241393 C23.3058187,21.3241393 23.6363636,20.9808811 23.6363636,20.5570819 L23.6363636,4.44887562 C23.6363636,4.02545991 23.3058187,3.68181818 22.8977157,3.68181818 L0.738647905,3.68181818 C0.330914261,3.68181818 5.32907052e-15,4.02545991 5.32907052e-15,4.44887562 L5.32907052e-15,20.5570819 L5.32907052e-15,20.5570819 Z M1.47729581,5.21593306 L22.1590678,5.21593306 L22.1590678,19.7900244 L11.8183665,19.7900244 C11.6418296,19.7900244 11.4715713,19.8556078 11.3375067,19.9748853 L7.38647905,23.4918436 L7.38647905,20.5570819 C7.38647905,20.1336662 7.05556479,19.7900244 6.64783115,19.7900244 L1.47729581,19.7900244 L1.47729581,5.21593306 L1.47729581,5.21593306 Z M20.681772,16.3382659 C20.681772,15.9148502 20.3512271,15.5712085 19.9431241,15.5712085 L3.69323953,15.5712085 C3.28513656,15.5712085 2.95459162,15.9148502 2.95459162,16.3382659 C2.95459162,16.7620652 3.28513656,17.1053234 3.69323953,17.1053234 L19.9431241,17.1053234 C20.3512271,17.1053234 20.681772,16.7620652 20.681772,16.3382659 L20.681772,16.3382659 Z M3.69323953,13.2700362 L19.9431241,13.2700362 C20.3512271,13.2700362 20.681772,12.926778 20.681772,12.5029787 C20.681772,12.079563 20.3512271,11.7359213 19.9431241,11.7359213 L3.69323953,11.7359213 C3.28513656,11.7359213 2.95459162,12.079563 2.95459162,12.5029787 C2.95459162,12.926778 3.28513656,13.2700362 3.69323953,13.2700362 L3.69323953,13.2700362 Z M3.69323953,9.43474898 L19.9431241,9.43474898 C20.3512271,9.43474898 20.681772,9.09149078 20.681772,8.66769154 C20.681772,8.24427583 20.3512271,7.9006341 19.9431241,7.9006341 L3.69323953,7.9006341 C3.28513656,7.9006341 2.95459162,8.24427583 2.95459162,8.66769154 C2.95459162,9.09149078 3.28513656,9.43474898 3.69323953,9.43474898 L3.69323953,9.43474898 Z" id="31-copy"></path>
                <ellipse id="Oval-Copy" cx="21.2727273" cy="4.90909091" rx="4.72727273" ry="4.90909091"></ellipse>
            </g>
        </g>
    </g>
</svg>