<?xml version="1.0" encoding="UTF-8"?>
<svg width="25px" height="25px" viewBox="0 0 25 25" version="1.1" xmlns="http://www.w3.org/2000/svg" xmlns:xlink="http://www.w3.org/1999/xlink">
    <!-- Generator: Sketch 43.1 (39012) - http://www.bohemiancoding.com/sketch -->
    <title>08 copy</title>
    <desc>Created with Sketch.</desc>
    <defs></defs>
    <g id="Page-1" stroke="none" stroke-width="1" fill="none" fill-rule="evenodd">
        <g id="Icons" transform="translate(-53.000000, -24.000000)" fill="#D5606C">
            <path d="M65.5,49 C68.8359375,49 71.9765625,47.6995891 74.3359375,45.3386147 C76.6992188,42.9780309 78,39.8389194 78,36.4998047 C78,33.1610806 76.6992188,30.0223597 74.3359375,27.6613853 C71.9765625,25.3004109 68.8359375,24 65.5,24 C62.1601563,24 59.0195313,25.3004109 56.6601562,27.6613853 C54.3007812,30.0223597 53,33.1610806 53,36.4998047 C53,39.8389194 54.3007812,42.9780309 56.6601562,45.3386147 C59.0195313,47.6995891 62.1601563,49 65.5,49 L65.5,49 Z M65.5,47.4374756 C62.578125,47.4374756 59.8320312,46.2999578 57.765625,44.2335193 C55.6992188,42.167862 54.5625,39.4213347 54.5625,36.4998047 C54.5625,33.5786653 55.6992188,30.832138 57.765625,28.7660901 C59.8320312,26.7000422 62.578125,25.5625244 65.5,25.5625244 C68.421875,25.5625244 71.1679687,26.7000422 73.2304687,28.7664807 C75.296875,30.832138 76.4375,33.5786653 76.4375,36.4998047 C76.4375,39.4213347 75.296875,42.167862 73.2304687,44.2339099 C71.1679687,46.2999578 68.421875,47.4374756 65.5,47.4374756 L65.5,47.4374756 Z M59.8671875,42.130752 C60.0195312,42.2830982 60.2226562,42.3596619 60.421875,42.3596619 C60.6210937,42.3596619 60.8203125,42.2830982 60.9726562,42.130752 L65.5,37.6049001 L70.0234375,42.130752 C70.1757812,42.2830982 70.3789062,42.3596619 70.578125,42.3596619 C70.7773437,42.3596619 70.9765625,42.2830982 71.1289062,42.130752 C71.4335937,41.8256692 71.4335937,41.3307395 71.1289062,41.0256567 L66.6054687,36.4998047 L71.1289062,31.9743433 C71.4335937,31.6692605 71.4335937,31.1743308 71.1289062,30.869248 C70.8242188,30.5641651 70.328125,30.5641651 70.0234375,30.869248 L65.5,35.3950999 L60.9726562,30.869248 C60.6679688,30.5641651 60.171875,30.5641651 59.8671875,30.869248 C59.5625,31.1743308 59.5625,31.6692605 59.8671875,31.9743433 L64.3945312,36.4998047 L59.8671875,41.0256567 C59.5625,41.3307395 59.5625,41.8256692 59.8671875,42.130752 L59.8671875,42.130752 Z" id="08-copy" transform="translate(65.500000, 36.500000) rotate(45.000000) translate(-65.500000, -36.500000) "></path>
        </g>
    </g>
</svg>