<?xml version="1.0" encoding="UTF-8"?>
<svg width="25px" height="25px" viewBox="0 0 25 25" version="1.1" xmlns="http://www.w3.org/2000/svg" xmlns:xlink="http://www.w3.org/1999/xlink">
    <!-- Generator: Sketch 43.1 (39012) - http://www.bohemiancoding.com/sketch -->
    <title>Group 2</title>
    <desc>Created with Sketch.</desc>
    <defs></defs>
    <g id="Page-1" stroke="none" stroke-width="1" fill="none" fill-rule="evenodd">
        <g id="Icons" transform="translate(-33.000000, -4.000000)" fill="#D5606C">
            <g id="Group-2" transform="translate(33.000000, 4.000000)">
                <path d="M12.5001953,3.55271368e-15 C9.16147127,3.55271368e-15 6.02275036,1.30041094 3.66177597,3.66138533 C1.30080158,6.02235972 0,9.16108064 0,12.4998047 C0,15.8389194 1.30080158,18.9780309 3.66177597,21.3386147 C6.02275036,23.6995891 9.16147127,25 12.5001953,25 C15.8389194,25 18.9776403,23.6995891 21.3386147,21.3386147 C23.6999797,18.9780309 25.0003906,15.8389194 25.0003906,12.4998047 C25.0003906,9.16108064 23.6999797,6.02235972 21.3386147,3.66138533 C18.9776403,1.30041094 15.8389194,3.55271368e-15 12.5001953,3.55271368e-15 L12.5001953,3.55271368e-15 Z M20.2335193,20.2339099 C18.167862,22.2999578 15.4213347,23.4374756 12.5001953,23.4374756 C9.57905592,23.4374756 6.83252863,22.2999578 4.76648073,20.2335193 C2.70043282,18.167862 1.56252441,15.4213347 1.56252441,12.4998047 C1.56252441,9.57866529 2.70043282,6.832138 4.76687136,4.7660901 C6.83252863,2.70004219 9.57905592,1.56252441 12.5001953,1.56252441 C15.4213347,1.56252441 18.167862,2.70004219 20.2339099,4.76648073 C22.2999578,6.832138 23.4378662,9.57866529 23.4378662,12.4998047 C23.4378662,15.4213347 22.2999578,18.167862 20.2335193,20.2339099 L20.2335193,20.2339099 Z M11.0833763,5.2910983 C10.7696995,4.99539055 10.2755512,5.00906264 9.97906217,5.32313005 C9.6829638,5.63641619 9.69702652,6.13095517 10.0107033,6.42744418 L16.4404913,12.4998047 L10.0107033,18.5725558 C9.69702652,18.8690448 9.6829638,19.3635838 9.97906217,19.6772606 C10.1329708,19.8401538 10.3396147,19.9221863 10.5474304,19.9221863 C10.7396209,19.9221863 10.9325927,19.8510914 11.0833763,19.7089017 L18.1147362,13.0681729 C18.2709886,12.9205144 18.3596619,12.7150424 18.3596619,12.4998047 C18.3596619,12.2849576 18.2709886,12.0794856 18.1147362,11.9318271 L11.0833763,5.2910983 L11.0833763,5.2910983 Z" id="04"></path>
            </g>
        </g>
    </g>
</svg>