<?xml version="1.0" encoding="UTF-8"?>
<svg width="19px" height="22px" viewBox="0 0 19 22" version="1.1" xmlns="http://www.w3.org/2000/svg" xmlns:xlink="http://www.w3.org/1999/xlink">
    <!-- Generator: Sketch 43.1 (39012) - http://www.bohemiancoding.com/sketch -->
    <title>Group 4</title>
    <desc>Created with Sketch.</desc>
    <defs></defs>
    <g id="Page-1" stroke="none" stroke-width="1" fill="none" fill-rule="evenodd">
        <g id="Icons" transform="translate(-6.000000, -112.000000)" stroke="#D5606C" stroke-width="0.5" fill="#D5606C" fill-rule="nonzero">
            <g id="Group-4" transform="translate(7.000000, 113.000000)">
                <path d="M17.2872027,12.9672708 L15.4864888,12.9672708 L15.4864888,8.09378419 C15.4864888,5.58322759 13.8332826,3.4517742 11.5584587,2.73009768 C11.5155386,1.21754279 10.2725445,0 8.74972604,0 L8.70204378,0 C7.1960437,0 5.96311652,1.19071803 5.89463731,2.68006498 C3.53463638,3.34869478 1.80065358,5.52252527 1.80065358,8.09378419 L1.80065358,12.9672708 L0,12.9672708 L0,17.5887854 L5.81627202,17.5887854 C6.03370556,18.9535329 7.21858879,20 8.64357121,20 C10.0685536,20 11.2534369,18.9535329 11.4708704,17.5887854 L17.2871424,17.5887854 L17.2871424,12.9672708 L17.2872027,12.9672708 Z M8.70204378,0.90420546 L8.74972604,0.90420546 C9.70270828,0.90420546 10.4946197,1.60701422 10.6343511,2.52152762 C10.3813517,2.48656501 10.1231079,2.46805894 9.86064449,2.46805894 L7.42643766,2.46805894 C7.22196452,2.46805894 7.02002319,2.47933137 6.82115619,2.5007309 C6.96968856,1.59646516 7.75635554,0.90420546 8.70204378,0.90420546 Z M8.64357121,19.0957343 C7.71892104,19.0957343 6.94238127,18.4516386 6.73766702,17.5887252 L10.5494754,17.5887252 C10.3447612,18.4516386 9.56822138,19.0957343 8.64357121,19.0957343 Z M16.3829878,16.6845197 L0.904214915,16.6845197 L0.904214915,13.871416 L2.70492878,13.871416 L2.70492878,8.09372391 C2.70492878,5.49027527 4.82302207,3.37220412 7.42649794,3.37220412 L9.86070477,3.37220412 C12.4641806,3.37220412 14.5822739,5.49027527 14.5822739,8.09372391 L14.5822739,13.871416 L16.3829878,13.871416 L16.3829878,16.6845197 L16.3829878,16.6845197 Z" id="Shape"></path>
            </g>
        </g>
    </g>
</svg>