<?xml version="1.0" encoding="UTF-8"?>
<svg width="23px" height="27px" viewBox="0 0 23 27" version="1.1" xmlns="http://www.w3.org/2000/svg" xmlns:xlink="http://www.w3.org/1999/xlink">
    <!-- Generator: Sketch 43.1 (39012) - http://www.bohemiancoding.com/sketch -->
    <title>Group 4</title>
    <desc>Created with Sketch.</desc>
    <defs></defs>
    <g id="Page-1" stroke="none" stroke-width="1" fill="none" fill-rule="evenodd">
        <g id="Icons" transform="translate(-6.000000, -112.000000)" stroke="#D5606C" stroke-width="0.5" fill="#D5606C" fill-rule="nonzero">
            <g id="Group-4" transform="translate(7.000000, 113.000000)">
                <path d="M21.6090034,16.2090885 L19.3581111,16.2090885 L19.3581111,10.1172302 C19.3581111,6.97903449 17.2916032,4.31471775 14.4480734,3.41262211 C14.3944233,1.52192849 12.8406807,0 10.9371576,0 L10.8775547,0 C8.99505462,0 7.45389565,1.48839754 7.36829664,3.35008123 C4.41829548,4.18586847 2.25081698,6.90315658 2.25081698,10.1172302 L2.25081698,16.2090885 L0,16.2090885 L0,21.9859818 L7.27034002,21.9859818 C7.54213195,23.6919161 9.02323599,25 10.804464,25 C12.585692,25 14.0667961,23.6919161 14.338588,21.9859818 L21.608928,21.9859818 L21.608928,16.2090885 L21.6090034,16.2090885 Z M10.8775547,1.13025682 L10.9371576,1.13025682 C12.1283854,1.13025682 13.1182746,2.00876778 13.2929388,3.15190953 C12.9766896,3.10820627 12.6538849,3.08507368 12.3258056,3.08507368 L9.28304707,3.08507368 C9.02745565,3.08507368 8.77502899,3.09916421 8.52644524,3.12591362 C8.7121107,1.99558145 9.69544442,1.13025682 10.8775547,1.13025682 Z M10.804464,23.8696678 C9.6486513,23.8696678 8.67797659,23.0645482 8.42208377,21.9859065 L13.1868443,21.9859065 C12.9309514,23.0645482 11.9602767,23.8696678 10.804464,23.8696678 Z M20.4787347,20.8556496 L1.13026864,20.8556496 L1.13026864,17.3392699 L3.38116097,17.3392699 L3.38116097,10.1171549 C3.38116097,6.86284409 6.02877759,4.21525515 9.28312242,4.21525515 L12.325881,4.21525515 C15.5802258,4.21525515 18.2278424,6.86284409 18.2278424,10.1171549 L18.2278424,17.3392699 L20.4787347,17.3392699 L20.4787347,20.8556496 L20.4787347,20.8556496 Z" id="Shape"></path>
            </g>
        </g>
    </g>
</svg>