<?xml version="1.0" encoding="UTF-8"?>
<svg width="23px" height="27px" viewBox="0 0 23 27" version="1.1" xmlns="http://www.w3.org/2000/svg" xmlns:xlink="http://www.w3.org/1999/xlink">
    <!-- Generator: Sketch 43.1 (39012) - http://www.bohemiancoding.com/sketch -->
    <title>Shape</title>
    <desc>Created with Sketch.</desc>
    <defs></defs>
    <g id="Page-1" stroke="none" stroke-width="1" fill="none" fill-rule="evenodd">
        <g id="oefening-bekijken-verwijderen-1111" transform="translate(-56.000000, -320.000000)" stroke="#E2CCD1" stroke-width="0.5" fill="#ffffff" fill-rule="nonzero">
            <g id="left-menu" transform="translate(-45.000000, -20.000000)">
                <path d="M123.609003,357.209088 L121.358111,357.209088 L121.358111,351.11723 C121.358111,347.979034 119.291603,345.314718 116.448073,344.412622 C116.394423,342.521928 114.840681,341 112.937158,341 L112.877555,341 C110.995055,341 109.453896,342.488398 109.368297,344.350081 C106.418295,345.185868 104.250817,347.903157 104.250817,351.11723 L104.250817,357.209088 L102,357.209088 L102,362.985982 L109.27034,362.985982 C109.542132,364.691916 111.023236,366 112.804464,366 C114.585692,366 116.066796,364.691916 116.338588,362.985982 L123.608928,362.985982 L123.608928,357.209088 L123.609003,357.209088 Z M112.877555,342.130257 L112.937158,342.130257 C114.128385,342.130257 115.118275,343.008768 115.292939,344.15191 C114.97669,344.108206 114.653885,344.085074 114.325806,344.085074 L111.283047,344.085074 C111.027456,344.085074 110.775029,344.099164 110.526445,344.125914 C110.712111,342.995581 111.695444,342.130257 112.877555,342.130257 Z M112.804464,364.869668 C111.648651,364.869668 110.677977,364.064548 110.422084,362.985906 L115.186844,362.985906 C114.930951,364.064548 113.960277,364.869668 112.804464,364.869668 Z M122.478735,361.85565 L103.130269,361.85565 L103.130269,358.33927 L105.381161,358.33927 L105.381161,351.117155 C105.381161,347.862844 108.028778,345.215255 111.283122,345.215255 L114.325881,345.215255 C117.580226,345.215255 120.227842,347.862844 120.227842,351.117155 L120.227842,358.33927 L122.478735,358.33927 L122.478735,361.85565 L122.478735,361.85565 Z" id="Shape"></path>
            </g>
        </g>
    </g>
</svg>