<?xml version="1.0" encoding="UTF-8"?>
<svg width="75px" height="48px" viewBox="0 0 75 48" version="1.1" xmlns="http://www.w3.org/2000/svg" xmlns:xlink="http://www.w3.org/1999/xlink">
    <!-- Generator: Sketch 43.1 (39012) - http://www.bohemiancoding.com/sketch -->
    <title>Group 17</title>
    <desc>Created with Sketch.</desc>
    <defs>
        <polygon id="path-1" points="74.8285714 0.00119047619 74.8285714 47.7216667 0 47.7216667 0 0.00119047619 74.8285714 0.00119047619"></polygon>
    </defs>
    <g id="Page-1" stroke="none" stroke-width="1" fill="none" fill-rule="evenodd">
        <g id="Group-17">
            <g id="Group-16">
                <g id="Page-1">
                    <mask id="mask-2" fill="white">
                        <use xlink:href="#path-1"></use>
                    </mask>
                    <g id="Clip-2"></g>
                    <path d="M72.0583333,29.2321429 C72.0583333,29.8488095 71.5630952,30.3511905 70.9488095,30.3511905 L67.622619,30.3511905 C67.0107143,30.3511905 66.5178571,29.8511905 66.5154762,29.2345238 L66.5154762,18.3869048 C66.5178571,17.7702381 67.0107143,17.2702381 67.622619,17.2702381 L70.9488095,17.2702381 C71.5630952,17.2702381 72.0583333,17.7702381 72.0583333,18.3892857 L72.0583333,29.2321429 Z M62.6345238,38.2011905 L59.3107143,38.2011905 C58.6964286,38.2011905 58.2011905,37.6988095 58.2011905,37.0797619 L58.2011905,10.5392857 C58.2011905,9.9202381 58.6964286,9.41785714 59.3107143,9.41785714 L62.6345238,9.41785714 C63.2488095,9.41785714 63.7440476,9.9202381 63.7440476,10.5392857 L63.7440476,18.3845238 L63.7440476,18.3892857 L63.7440476,29.2321429 L63.7440476,29.2369048 L63.7440476,37.0797619 C63.7440476,37.6988095 63.2488095,38.2011905 62.6345238,38.2011905 L62.6345238,38.2011905 Z M55.4297619,43.6964286 C55.4297619,44.3154762 54.9345238,44.8178571 54.3202381,44.8178571 L50.9940476,44.8178571 C50.3821429,44.8178571 49.8869048,44.3154762 49.8869048,43.6964286 L49.8869048,25.4892857 L49.8869048,22.1297619 L49.8869048,3.92261905 C49.8869048,3.30119048 50.3821429,2.80119048 50.9940476,2.80119048 L54.3202381,2.80119048 C54.9345238,2.80119048 55.4297619,3.30119048 55.4297619,3.92261905 L55.4297619,10.5392857 L55.4297619,37.0797619 L55.4297619,43.6964286 Z M27.7130952,26.6107143 L47.1130952,26.6107143 L47.1130952,21.0083333 L27.7130952,21.0083333 L27.7130952,26.6107143 Z M24.9440476,43.8011905 C24.9440476,44.4178571 24.4464286,44.9202381 23.8345238,44.9202381 L20.5083333,44.9202381 C19.8964286,44.9202381 19.4011905,44.4178571 19.4011905,43.8011905 L19.4011905,37.1821429 L19.4011905,10.6416667 L19.4011905,4.025 C19.4011905,3.40595238 19.8964286,2.90357143 20.5083333,2.90357143 L23.8345238,2.90357143 C24.4464286,2.90357143 24.9440476,3.40595238 24.9440476,4.025 L24.9440476,22.1297619 L24.9440476,25.4892857 L24.9440476,43.8011905 Z M15.5202381,38.3035714 L12.1940476,38.3035714 C11.5821429,38.3035714 11.0869048,37.8011905 11.0869048,37.1821429 L11.0869048,29.3345238 L11.0869048,18.4916667 L11.0869048,10.6416667 C11.0869048,10.022619 11.5821429,9.52261905 12.1940476,9.52261905 L15.5202381,9.52261905 C16.1321429,9.52261905 16.6297619,10.022619 16.6297619,10.6416667 L16.6297619,37.1821429 C16.6297619,37.8011905 16.1321429,38.3035714 15.5202381,38.3035714 L15.5202381,38.3035714 Z M7.20595238,30.4535714 L3.8797619,30.4535714 C3.26785714,30.4535714 2.7702381,29.9511905 2.7702381,29.3345238 L2.7702381,18.4916667 C2.7702381,17.872619 3.26785714,17.372619 3.8797619,17.372619 L7.20595238,17.372619 C7.81785714,17.372619 8.31547619,17.872619 8.31547619,18.4916667 L8.31547619,29.3345238 C8.31547619,29.9511905 7.81785714,30.4535714 7.20595238,30.4535714 L7.20595238,30.4535714 Z M70.9488095,14.4678571 L67.622619,14.4678571 C67.2369048,14.4678571 66.8678571,14.5440476 66.5154762,14.6488095 L66.5154762,10.5392857 C66.5154762,8.37738095 64.775,6.61785714 62.6345238,6.61785714 L59.3107143,6.61785714 C58.9202381,6.61785714 58.5559524,6.69404762 58.2011905,6.80119048 L58.2011905,3.92261905 C58.2011905,1.75833333 56.4607143,0.00119047619 54.3202381,0.00119047619 L50.9940476,0.00119047619 C48.8559524,0.00119047619 47.1154762,1.75833333 47.1154762,3.92261905 L47.1154762,18.2083333 L27.7130952,18.2083333 L27.7130952,4.025 C27.7130952,1.86071429 25.975,0.103571429 23.8345238,0.103571429 L20.5083333,0.103571429 C18.3702381,0.103571429 16.6297619,1.86071429 16.6297619,4.025 L16.6297619,6.90357143 C16.275,6.79642857 15.9083333,6.7202381 15.5202381,6.7202381 L12.1940476,6.7202381 C10.0535714,6.7202381 8.31547619,8.4797619 8.31547619,10.6416667 L8.31547619,14.7535714 C7.96071429,14.6464286 7.59404762,14.5702381 7.20595238,14.5702381 L3.8797619,14.5702381 C1.73928571,14.5702381 -0.00119047619,16.3297619 -0.00119047619,18.4916667 L-0.00119047619,29.3345238 C-0.00119047619,31.4940476 1.73928571,33.2535714 3.8797619,33.2535714 L7.20595238,33.2535714 C7.59404762,33.2535714 7.96071429,33.1797619 8.31547619,33.0702381 L8.31547619,37.1821429 C8.31547619,39.3464286 10.0535714,41.1035714 12.1940476,41.1035714 L15.5202381,41.1035714 C15.9083333,41.1035714 16.275,41.0297619 16.6297619,40.9202381 L16.6297619,43.8011905 C16.6297619,45.9630952 18.3702381,47.722619 20.5083333,47.722619 L23.8345238,47.722619 C25.975,47.722619 27.7130952,45.9630952 27.7130952,43.8011905 L27.7130952,29.4107143 L47.1154762,29.4107143 L47.1154762,43.6964286 C47.1154762,45.8607143 48.8559524,47.6202381 50.9940476,47.6202381 L54.3202381,47.6202381 C56.4607143,47.6202381 58.2011905,45.8607143 58.2011905,43.6964286 L58.2011905,40.8178571 C58.5559524,40.927381 58.9202381,41.0011905 59.3107143,41.0011905 L62.6345238,41.0011905 C64.775,41.0011905 66.5154762,39.2416667 66.5154762,37.0797619 L66.5154762,32.9678571 C66.8678571,33.075 67.2369048,33.1511905 67.622619,33.1511905 L70.9488095,33.1511905 C73.0892857,33.1511905 74.8297619,31.3916667 74.8297619,29.2321429 L74.8297619,18.3892857 C74.8297619,16.227381 73.0892857,14.4678571 70.9488095,14.4678571 L70.9488095,14.4678571 Z" id="Fill-1" fill="#ffffff" mask="url(#mask-2)"></path>
                </g>
            </g>
        </g>
    </g>
</svg>