<?xml version="1.0" encoding="UTF-8"?>
<svg width="25px" height="25px" viewBox="0 0 25 25" version="1.1" xmlns="http://www.w3.org/2000/svg" xmlns:xlink="http://www.w3.org/1999/xlink">
    <!-- Generator: Sketch 43.1 (39012) - http://www.bohemiancoding.com/sketch -->
    <title>Group 3</title>
    <desc>Created with Sketch.</desc>
    <defs></defs>
    <g id="Page-1" stroke="none" stroke-width="1" fill="none" fill-rule="evenodd">
        <g id="Icons" transform="translate(-8.000000, -4.000000)" fill="#D5606C">
            <g id="Group-3" transform="translate(8.000000, 4.000000)">
                <path d="M12.5,3.55271368e-15 C9.16132813,3.55271368e-15 6.02265625,1.30039063 3.66171875,3.66132813 C1.30039063,6.02226563 0,9.1609375 0,12.4996094 C0,15.8386719 1.30039063,18.9777344 3.66171875,21.3382813 C6.02265625,23.6992188 9.16132813,24.9996094 12.5,24.9996094 C15.8386719,24.9996094 18.9773438,23.6992188 21.3382813,21.3382813 C23.6992188,18.9777344 25,15.8386719 25,12.4996094 C25,9.1609375 23.6992188,6.02226563 21.3382813,3.66132813 C18.9773438,1.30039063 15.8386719,3.55271368e-15 12.5,3.55271368e-15 L12.5,3.55271368e-15 Z M20.2332031,20.2335938 C18.1675781,22.2996094 15.4210938,23.4371094 12.5,23.4371094 C9.57890625,23.4371094 6.83242188,22.2996094 4.76640625,20.2332031 C2.70039063,18.1675781 1.5625,15.4210938 1.5625,12.4996094 C1.5625,9.57851563 2.70039063,6.83203125 4.76679688,4.76601563 C6.83242188,2.7 9.57890625,1.5625 12.5,1.5625 C15.4210938,1.5625 18.1675781,2.7 20.2335937,4.76640625 C22.2996094,6.83203125 23.4375,9.57851563 23.4375,12.4996094 C23.4375,15.4210938 22.2996094,18.1675781 20.2332031,20.2335938 L20.2332031,20.2335938 Z M15.0210938,5.32304688 C14.7246094,5.00898438 14.2304688,4.9953125 13.9167969,5.29101563 L6.88554688,11.9316406 C6.72929688,12.0792969 6.640625,12.2847656 6.640625,12.4996094 C6.640625,12.7148438 6.72929688,12.9203125 6.88554688,13.0679688 L13.9167969,19.7085938 C14.0675781,19.8507813 14.2605469,19.921875 14.4527344,19.921875 C14.6605469,19.921875 14.8671875,19.8394531 15.0210938,19.6769531 C15.3171875,19.3632813 15.303125,18.86875 14.9894531,18.5722656 L8.55976563,12.4996094 L14.9894531,6.42734375 C15.303125,6.13085938 15.3171875,5.63632813 15.0210938,5.32304688 L15.0210938,5.32304688 Z" id="03"></path>
            </g>
        </g>
    </g>
</svg>