<?xml version="1.0" encoding="UTF-8"?>
<svg width="28px" height="25px" viewBox="0 0 28 25" version="1.1" xmlns="http://www.w3.org/2000/svg" xmlns:xlink="http://www.w3.org/1999/xlink">
    <!-- Generator: Sketch 43.1 (39012) - http://www.bohemiancoding.com/sketch -->
    <title>60</title>
    <desc>Created with Sketch.</desc>
    <defs></defs>
    <g id="Symbols" stroke="none" stroke-width="1" fill="none" fill-rule="evenodd">
        <g id="zorgvrager-verwijderen-icon" transform="translate(-10.000000, -10.000000)" fill="#A19194">
            <path d="M11.7696556,28.6926452 L10.0455103,33.8650813 C9.95499263,34.1284445 10.0024066,34.4172389 10.1618901,34.6418088 C10.3256839,34.8672408 10.5843057,35 10.8601689,35 L36.7223494,35 C36.9982126,35 37.2611448,34.8672408 37.4249386,34.6418088 C37.5844221,34.4172389 37.6275257,34.1284445 37.5413184,33.8650813 L35.8171731,28.6926452 C35.7266554,28.4232475 35.5111373,28.215057 35.235274,28.1366083 L29.2007652,26.412463 C28.9938678,26.35298 28.7740393,26.3741008 28.5800729,26.4702219 L23.7912592,28.8637667 L19.0067558,26.4702219 C18.8127894,26.3741008 18.5929609,26.35298 18.3817531,26.412463 L12.3472443,28.1366083 C12.0756914,28.215057 11.8601733,28.4232475 11.7696556,28.6926452 L11.7696556,28.6926452 Z M18.5369262,28.1624705 L23.4076368,30.5986879 C23.6490172,30.7202402 23.9378115,30.7202402 24.1791919,30.5986879 L29.0499025,28.1624705 L34.3257873,29.6693736 L35.5283787,33.2758546 L12.05845,33.2758546 L13.2610414,29.6693736 L18.5369262,28.1624705 L18.5369262,28.1624705 Z M23.7912592,27.2413459 C27.5326546,27.2413459 30.6878406,23.4908987 30.6878406,19.0516554 C30.6878406,14.6124121 27.5326546,10.8619649 23.7912592,10.8619649 C20.0541741,10.8619649 16.8946777,14.6124121 16.8946777,19.0516554 C16.8946777,23.4908987 20.0541741,27.2413459 23.7912592,27.2413459 L23.7912592,27.2413459 Z M23.7912592,12.5861103 C26.5973057,12.5861103 28.9636953,15.5468989 28.9636953,19.0516554 C28.9636953,22.5564119 26.5973057,25.5172005 23.7912592,25.5172005 C20.9895229,25.5172005 18.6188231,22.5564119 18.6188231,19.0516554 C18.6188231,15.5468989 20.9895229,12.5861103 23.7912592,12.5861103 L23.7912592,12.5861103 Z M30.9421521,15.7818137 C31.1102562,15.9503489 31.3300848,16.034401 31.5499133,16.034401 C31.7740522,16.034401 31.9938807,15.9503489 32.1619849,15.7818137 L33.705095,14.2361174 L35.2525155,15.7818137 C35.4206196,15.9503489 35.6404482,16.034401 35.8602767,16.034401 C36.0801052,16.034401 36.3042441,15.9503489 36.4723483,15.7818137 C36.8085567,15.4451743 36.8085567,14.8999134 36.4723483,14.5628429 L34.9249278,13.0171466 L36.4723483,11.4714503 C36.8085567,11.1348109 36.8085567,10.58955 36.4723483,10.2524795 C36.13614,9.91584015 35.5887238,9.91584015 35.2525155,10.2524795 L33.705095,11.7981759 L32.1619849,10.2524795 C31.8257766,9.91584015 31.2783604,9.91584015 30.9421521,10.2524795 C30.6059437,10.58955 30.6059437,11.1348109 30.9421521,11.4714503 L32.4852622,13.0171466 L30.9421521,14.5628429 C30.6059437,14.8999134 30.6059437,15.4451743 30.9421521,15.7818137 L30.9421521,15.7818137 Z" id="60"></path>
        </g>
    </g>
</svg>