<?xml version="1.0" encoding="UTF-8"?>
<svg width="45px" height="44px" viewBox="0 0 45 44" version="1.1" xmlns="http://www.w3.org/2000/svg" xmlns:xlink="http://www.w3.org/1999/xlink">
    <!-- Generator: Sketch 43.1 (39012) - http://www.bohemiancoding.com/sketch -->
    <title>Group 3</title>
    <desc>Created with Sketch.</desc>
    <defs>
        <polygon id="path-1" points="5.43449563e-15 0.00865384615 44.99064 0.00865384615 44.99064 43.2683654 0 43.2683654"></polygon>
    </defs>
    <g id="Page-1" stroke="none" stroke-width="1" fill="none" fill-rule="evenodd">
        <g id="Oefening-toevoegen-(live-editing)" transform="translate(-1330.000000, -273.000000)">
            <g id="Group-3" transform="translate(1330.000000, 272.000000)">
                <g id="save-button">
                    <g id="Page-1">
                        <g id="Group-3" transform="translate(0.000000, 1.721596)">
                            <mask id="mask-2" fill="white">
                                <use xlink:href="#path-1"></use>
                            </mask>
                            <g id="Clip-2"></g>
                            <path d="M22.49604,2.55721154 C11.55384,2.55721154 2.65104,11.1158654 2.65104,21.6372115 C2.65104,32.1602885 11.55384,40.7224038 22.49604,40.7224038 C33.43824,40.7224038 42.33924,32.1602885 42.33924,21.6372115 C42.33924,11.1158654 33.43824,2.55721154 22.49604,2.55721154 M22.49604,43.2683654 C10.09224,43.2683654 -0.00036,33.5656731 -0.00036,21.6372115 C-0.00036,9.71221154 10.09224,0.00778846154 22.49604,0.00778846154 C34.89984,0.00778846154 44.99064,9.71221154 44.99064,21.6372115 C44.99064,33.5656731 34.89984,43.2683654 22.49604,43.2683654" id="Fill-1" fill="#D5606C" mask="url(#mask-2)"></path>
                        </g>
                        <path d="M34.42986,34.0161923 C34.42986,34.4679231 34.04646,34.8365769 33.57666,34.8365769 L30.85866,34.8365769 L30.85866,25.5388846 L14.13486,25.5388846 L14.13486,34.8365769 L11.41326,34.8365769 C10.94346,34.8365769 10.56006,34.4679231 10.56006,34.0161923 L10.56006,12.7052308 C10.56006,12.2535 10.94346,11.8848462 11.41326,11.8848462 L14.61006,11.8848462 L14.61006,19.7650385 C14.61006,20.5473462 15.27426,21.1842692 16.09146,21.1842692 L28.90026,21.1842692 C29.71566,21.1842692 30.37986,20.5473462 30.37986,19.7650385 L30.37986,11.8848462 L30.48966,11.8848462 L34.42986,16.2879231 L34.42986,34.0161923 Z M15.71526,34.8348462 L29.27826,34.8348462 L29.27826,27.0567692 L15.71526,27.0567692 L15.71526,34.8348462 Z M28.79766,11.8848462 L28.79766,19.6663846 L16.19226,19.7650385 L16.19226,11.8848462 L28.79766,11.8848462 Z M31.21506,10.3652308 L30.37986,10.3652308 L14.61006,10.3652308 L11.41326,10.3652308 C10.07226,10.3652308 8.97966,11.4140769 8.97966,12.7052308 L8.97966,34.0161923 C8.97966,35.3056154 10.07226,36.3561923 11.41326,36.3561923 L14.13486,36.3561923 L30.85866,36.3561923 L33.57666,36.3561923 C34.91766,36.3561923 36.01026,35.3056154 36.01026,34.0161923 L36.01026,15.7236923 L31.21506,10.3652308 Z" id="Fill-4" stroke="#D5606C" stroke-width="0.3" fill="#D5606C"></path>
                        <path d="M24.1902,14.7669231 C24.1902,14.6786538 24.2658,14.6059615 24.3576,14.6059615 L25.9668,14.6059615 C26.0586,14.6059615 26.1342,14.6786538 26.1342,14.7669231 L26.1342,17.5569231 C26.1342,17.6451923 26.0586,17.7178846 25.9668,17.7178846 L24.3576,17.7178846 C24.2658,17.7178846 24.1902,17.6451923 24.1902,17.5569231 L24.1902,14.7669231 Z M24.3576,18.4794231 L25.9668,18.4794231 C26.496,18.4794231 26.9262,18.0657692 26.9262,17.5569231 L26.9262,14.7669231 C26.9262,14.2580769 26.496,13.8461538 25.9668,13.8461538 L24.3576,13.8461538 C23.8284,13.8461538 23.4,14.2580769 23.4,14.7669231 L23.4,17.5569231 C23.4,18.0657692 23.8284,18.4794231 24.3576,18.4794231 L24.3576,18.4794231 Z" id="Fill-6" fill="#D5606C"></path>
                    </g>
                </g>
            </g>
        </g>
    </g>
</svg>