<?xml version="1.0" encoding="UTF-8"?>
<svg width="25px" height="25px" viewBox="0 0 25 25" version="1.1" xmlns="http://www.w3.org/2000/svg" xmlns:xlink="http://www.w3.org/1999/xlink">
    <!-- Generator: Sketch 43.1 (39012) - http://www.bohemiancoding.com/sketch -->
    <title>48</title>
    <desc>Created with Sketch.</desc>
    <defs></defs>
    <g id="Page-1" stroke="none" stroke-width="1" fill="none" fill-rule="evenodd">
        <g id="Icons" transform="translate(-98.000000, -29.000000)" fill="#D5606C">
            <path d="M115.739667,43.2925229 C115.434956,42.9874209 114.938823,42.9874209 114.634112,43.2925229 L114.016876,43.9121025 L112.528479,42.4233143 C113.700445,41.0040628 114.407532,39.1851707 114.407532,37.2037659 C114.407532,32.6803657 110.727557,29 106.203766,29 C101.679975,29 98,32.6803657 98,37.2037659 C98,41.7275568 101.679975,45.4075318 106.203766,45.4075318 C108.184389,45.4075318 110.000938,44.7016173 111.422924,43.5280881 L112.911321,45.0168763 L112.290179,45.636456 C111.985468,45.9415579 111.985468,46.4365185 112.290179,46.7412298 L119.321978,53.7734198 C119.474334,53.9257755 119.677475,54.0019533 119.876709,54.0019533 C120.075943,54.0019533 120.275178,53.9257755 120.427533,53.7734198 L122.771467,51.4294867 C123.076178,51.1243847 123.076178,50.6294242 122.771467,50.3243222 L115.739667,43.2925229 L115.739667,43.2925229 Z M99.5626221,37.2037659 C99.5626221,33.5417611 102.539417,30.5626221 106.203766,30.5626221 C109.864208,30.5626221 112.84491,33.5417611 112.84491,37.2037659 C112.84491,40.8657708 109.864208,43.8449098 106.203766,43.8449098 C102.539417,43.8449098 99.5626221,40.8657708 99.5626221,37.2037659 L99.5626221,37.2037659 Z M119.876709,52.1158684 L113.950465,46.1888429 L115.188843,44.9500742 L121.115087,50.8767091 L119.876709,52.1158684 L119.876709,52.1158684 Z" id="48"></path>
        </g>
    </g>
</svg>