<?xml version="1.0" encoding="UTF-8"?>
<svg width="25px" height="25px" viewBox="0 0 25 25" version="1.1" xmlns="http://www.w3.org/2000/svg" xmlns:xlink="http://www.w3.org/1999/xlink">
    <!-- Generator: Sketch 43.1 (39012) - http://www.bohemiancoding.com/sketch -->
    <title>Group 5</title>
    <desc>Created with Sketch.</desc>
    <defs></defs>
    <g id="Page-1" stroke="none" stroke-width="1" fill="none" fill-rule="evenodd">
        <g id="Icons" transform="translate(-63.000000, -113.000000)" fill="#D5606C">
            <g id="Group-5" transform="translate(63.000000, 113.000000)">
                <path d="M12.5,15.625 C14.2234375,15.625 15.625,14.2226563 15.625,12.5 C15.625,10.7773437 14.2234375,9.375 12.5,9.375 C10.7773438,9.375 9.375,10.7773437 9.375,12.5 C9.375,14.2226563 10.7773438,15.625 12.5,15.625 L12.5,15.625 Z M12.5,10.9375 C13.3617188,10.9375 14.0625,11.640625 14.0625,12.5 C14.0625,13.359375 13.3617188,14.0625 12.5,14.0625 C11.6386719,14.0625 10.9375,13.359375 10.9375,12.5 C10.9375,11.640625 11.6386719,10.9375 12.5,10.9375 L12.5,10.9375 Z M1.5625,10.9375 L3.90625,10.9375 C4.24257813,10.9375 4.54101562,10.7226563 4.64804688,10.4023438 L5.42929688,8.05859375 C5.52226563,7.77734375 5.44921875,7.46875 5.23984375,7.26171875 L3.44882813,5.46875 L5.46875,3.44921875 L7.26015625,5.23828125 C7.46914063,5.44921875 7.77890625,5.5234375 8.05976563,5.4296875 L10.4035156,4.6484375 C10.7222656,4.5390625 10.9375,4.2421875 10.9375,3.90625 L10.9375,1.5625 L14.0625,1.5625 L14.0625,3.90625 C14.0625,4.2421875 14.2777344,4.5390625 14.596875,4.6484375 L16.940625,5.4296875 C17.221875,5.5234375 17.5308594,5.44921875 17.7398438,5.23828125 L19.53125,3.44921875 L21.5515625,5.46875 L19.7601563,7.26171875 C19.5511719,7.46875 19.4777344,7.77734375 19.5714844,8.05859375 L20.3527344,10.4023438 C20.4589844,10.7226563 20.7574219,10.9375 21.09375,10.9375 L23.4375,10.9375 L23.4375,14.0625 L21.09375,14.0625 C20.7574219,14.0625 20.4589844,14.2773437 20.3527344,14.5976562 L19.5714844,16.9414062 C19.4777344,17.2226562 19.5511719,17.53125 19.7601563,17.7382813 L21.5515625,19.53125 L19.53125,21.5507813 L17.7398438,19.7617187 C17.5308594,19.5507812 17.2210938,19.4765625 16.940625,19.5703125 L14.596875,20.3515625 C14.2777344,20.4609375 14.0625,20.7578125 14.0625,21.09375 L14.0625,23.4375 L10.9375,23.4375 L10.9375,21.09375 C10.9375,20.7578125 10.7222656,20.4609375 10.4035156,20.3515625 L8.05976563,19.5703125 C7.7796875,19.4765625 7.46953125,19.5507812 7.26015625,19.7617187 L5.46875,21.5507813 L3.44882813,19.53125 L5.23984375,17.7382813 C5.44921875,17.53125 5.52226563,17.2226562 5.42929688,16.9414062 L4.64804688,14.5976562 C4.54101562,14.2773437 4.24257813,14.0625 3.90625,14.0625 L1.5625,14.0625 L1.5625,10.9375 L1.5625,10.9375 Z M0.78125,15.625 L3.34335938,15.625 L3.79414063,16.9765625 L1.79140625,18.9804687 C1.48632813,19.2851562 1.48632813,19.7773438 1.79140625,20.0820313 L4.91640625,23.2070313 C5.22148438,23.5117188 5.71679688,23.5117188 6.02109375,23.2070313 L8.02382813,21.2070312 L9.375,21.65625 L9.375,24.21875 C9.375,24.6523437 9.72539063,25 10.15625,25 L14.84375,25 C15.2753906,25 15.625,24.6523437 15.625,24.21875 L15.625,21.65625 L16.9769531,21.2070312 L18.9789063,23.2070313 C19.2839844,23.5117188 19.7792969,23.5117188 20.0835938,23.2070313 L23.2085938,20.0820313 C23.5136719,19.7773438 23.5136719,19.2851562 23.2085938,18.9804687 L21.2066406,16.9765625 L21.6566406,15.625 L24.21875,15.625 C24.6503906,15.625 25,15.2773437 25,14.84375 L25,10.15625 C25,9.7265625 24.6503906,9.375 24.21875,9.375 L21.6566406,9.375 L21.2066406,8.0234375 L23.2085938,6.01953125 C23.5136719,5.71484375 23.5136719,5.22265625 23.2085938,4.91796875 L20.0835938,1.79296875 C19.7792969,1.48828125 19.2839844,1.48828125 18.9789063,1.79296875 L16.9769531,3.79296875 L15.625,3.34375 L15.625,0.78125 C15.625,0.3515625 15.2753906,0 14.84375,0 L10.15625,0 C9.72539063,0 9.375,0.3515625 9.375,0.78125 L9.375,3.34375 L8.02382813,3.79296875 L6.02109375,1.79296875 C5.71679688,1.48828125 5.22148438,1.48828125 4.91640625,1.79296875 L1.79140625,4.91796875 C1.48632813,5.22265625 1.48632813,5.71484375 1.79140625,6.01953125 L3.79414063,8.0234375 L3.34335938,9.375 L0.78125,9.375 C0.350390625,9.375 0,9.7265625 0,10.15625 L0,14.84375 C0,15.2773437 0.350390625,15.625 0.78125,15.625 L0.78125,15.625 Z" id="123"></path>
            </g>
        </g>
    </g>
</svg>