<?xml version="1.0" encoding="UTF-8"?>
<svg width="19px" height="25px" viewBox="0 0 19 25" version="1.1" xmlns="http://www.w3.org/2000/svg" xmlns:xlink="http://www.w3.org/1999/xlink">
    <!-- Generator: Sketch 43.1 (39012) - http://www.bohemiancoding.com/sketch -->
    <title>126</title>
    <desc>Created with Sketch.</desc>
    <defs></defs>
    <g id="Page-1" stroke="none" stroke-width="1" fill="none" fill-rule="evenodd">
        <g id="Icons" transform="translate(-33.000000, -29.000000)" fill="#D5606C">
            <path d="M45.1089844,29 L39.640625,29 C39.209375,29 38.859375,29.3515625 38.859375,29.78125 L38.859375,32.125 L33.78125,32.125 C33.35,32.125 33,32.4765625 33,32.90625 C33,33.3398437 33.35,33.6875 33.78125,33.6875 L34.5625,33.6875 L34.5625,53.21875 C34.5625,53.6523437 34.9125,54 35.34375,54 L49.4058594,54 C49.8378906,54 50.1871094,53.6523437 50.1871094,53.21875 L50.1871094,33.6875 L50.9683594,33.6875 C51.4003906,33.6875 51.7496094,33.3398437 51.7496094,32.90625 C51.7496094,32.4765625 51.4003906,32.125 50.9683594,32.125 L45.8902344,32.125 L45.8902344,29.78125 C45.8902344,29.3515625 45.5410156,29 45.1089844,29 L45.1089844,29 Z M48.6246094,33.6875 L48.6246094,52.4375 L36.125,52.4375 L36.125,33.6875 L48.6246094,33.6875 L48.6246094,33.6875 Z M44.7183594,50.875 C45.1503906,50.875 45.4996094,50.5273437 45.4996094,50.09375 L45.4996094,36.8125 C45.4996094,36.3828125 45.1503906,36.03125 44.7183594,36.03125 C44.2875,36.03125 43.9371094,36.3828125 43.9371094,36.8125 L43.9371094,50.09375 C43.9371094,50.5273437 44.2875,50.875 44.7183594,50.875 L44.7183594,50.875 Z M40.0308594,50.875 C40.4628906,50.875 40.8125,50.5273437 40.8125,50.09375 L40.8125,36.8125 C40.8125,36.3828125 40.4628906,36.03125 40.0308594,36.03125 C39.6,36.03125 39.25,36.3828125 39.25,36.8125 L39.25,50.09375 C39.25,50.5273437 39.6,50.875 40.0308594,50.875 L40.0308594,50.875 Z M40.421875,32.125 L40.421875,30.5625 L44.3277344,30.5625 L44.3277344,32.125 L40.421875,32.125 L40.421875,32.125 Z" id="126"></path>
        </g>
    </g>
</svg>